<svg width="1708" height="1080" viewBox="0 0 1708 1080" fill="none" xmlns="http://www.w3.org/2000/svg">
<path d="M291.6 210.239L47.0723 246.299C42.201 247.018 38.7685 252.039 39.4055 257.516L71.3823 532.41C72.0193 537.886 76.4847 541.743 81.356 541.025L325.884 504.965C330.755 504.247 334.188 499.225 333.551 493.749L301.574 218.854C300.937 213.378 296.472 209.521 291.6 210.239Z" fill="#565C00"/>
<path d="M203.202 439.227L184.946 441.915C182.864 442.221 181.388 444.377 181.661 446.715C181.933 449.052 183.85 450.708 185.935 450.401L204.19 447.714C206.273 447.407 207.743 445.252 207.471 442.914C207.199 440.576 205.285 438.92 203.202 439.227Z" fill="#F84071"/>
<path d="M187.78 387.277C181.788 388.159 177.547 394.357 178.332 401.094L179.755 413.315C180.541 420.052 186.06 424.819 192.052 423.936C198.044 423.054 202.285 416.85 201.5 410.114L200.076 397.892C199.292 391.156 193.773 386.395 187.78 387.277ZM194.047 411.211C194.294 413.33 192.963 415.28 191.076 415.558C189.191 415.835 187.457 414.34 187.209 412.218L185.785 399.996C185.539 397.88 186.869 395.933 188.757 395.656C190.639 395.378 192.376 396.874 192.622 398.989L194.047 411.211Z" fill="#F84071"/>
<path d="M232.625 357.677C228.763 354.337 223.986 352.894 219.166 353.604C209.521 355.024 202.611 364.736 203.37 375.516L170.19 380.401C168.458 369.758 159.557 362.38 149.906 363.801C139.947 365.267 132.907 375.569 134.211 386.763C135.516 397.959 144.68 405.872 154.637 404.406C163.071 403.164 169.578 395.53 170.389 386.086L204.473 381.068C207.421 389.959 215.46 395.451 223.89 394.21C233.85 392.744 240.89 382.441 239.586 371.248C238.963 365.835 236.487 361.018 232.626 357.677H232.625Z" fill="#F84071"/>
<path d="M288.618 358.961C286.715 349.619 281.011 342.427 273.901 339.594C258.984 279.039 210.71 259.49 167.864 267.214C148.858 270.687 130.496 281.372 117.477 296.531C102.11 314.432 94.1509 338.493 94.077 366.348C87.7274 371.106 83.7622 379.79 84.0691 389.483C84.4446 401.331 91.0533 411.21 100.226 413.947C100.343 414.955 100.443 415.972 100.571 416.982C104.234 446.016 118.817 467.276 142.732 478.452C166.959 489.774 192.154 487.222 199.297 486.17C206.441 485.118 231.366 480.292 252.184 462.337C272.737 444.615 281.953 419.852 278.84 390.735C278.721 389.614 278.573 388.512 278.443 387.396C286.794 382.15 290.983 370.598 288.615 358.963L288.618 358.961ZM97.848 403.445C94.2167 400.356 91.7837 395.061 91.5897 389.18C91.2882 380.077 95.3029 376.044 96.9308 374.446L97.848 403.445ZM198.447 478.834C133.799 488.352 110.603 443.778 107.089 415.942C105.701 404.94 104.972 394.408 104.922 384.657C104.917 361.435 111.883 348.261 117.629 337.724C117.727 344.942 144.451 354.434 159.151 345.918C172.476 350.817 190.145 349.545 199.792 339.21C207.762 346.686 235.532 333.823 243.029 322.207C251.47 330.402 261.504 342.168 267.269 360.828C269.449 370.257 271.149 380.62 272.318 391.615C275.296 419.533 263.096 469.315 198.449 478.833L198.447 478.834ZM278.511 376.451L272.755 348.161C274.71 349.246 279.89 353.647 281.292 360.851C282.409 366.602 281.312 372.414 278.511 376.451Z" fill="#F84071"/>
<g opacity="0.5">
<path d="M1269.55 183.65L1115.94 196.236C1111.55 196.595 1108.26 200.882 1108.58 205.811L1119.74 378.492C1120.06 383.421 1123.87 387.126 1128.25 386.767L1281.86 374.181C1286.25 373.822 1289.55 369.535 1289.23 364.606L1278.07 191.925C1277.75 186.996 1273.94 183.291 1269.55 183.65Z" fill="#574144"/>
<path d="M1269.55 183.65L1115.94 196.236C1111.55 196.595 1108.26 200.882 1108.58 205.811L1119.74 378.492C1120.06 383.421 1123.87 387.126 1128.25 386.767L1281.86 374.181C1286.25 373.822 1289.55 369.535 1289.23 364.606L1278.07 191.925C1277.75 186.996 1273.94 183.291 1269.55 183.65Z" fill="#574144"/>
</g>
<path d="M1200.03 300.021C1196.05 300.342 1193.05 304.184 1193.34 308.586L1193.86 316.573C1194.15 320.976 1197.63 324.299 1201.61 323.979C1205.59 323.658 1208.59 319.813 1208.3 315.411L1207.77 307.423C1207.49 303.022 1204.01 299.701 1200.03 300.021ZM1203.35 315.809C1203.44 317.194 1202.5 318.402 1201.25 318.503C1200 318.604 1198.9 317.561 1198.81 316.175L1198.29 308.188C1198.2 306.805 1199.14 305.598 1200.39 305.498C1201.64 305.396 1202.73 306.439 1202.83 307.822L1203.35 315.809Z" fill="#FF1B54"/>
<path d="M1209.94 329.006C1208.74 329.098 1207.83 330.205 1207.92 331.471C1208.17 335.02 1205.62 338.115 1202.25 338.374C1198.88 338.632 1195.94 335.955 1195.69 332.407C1195.6 331.141 1194.55 330.185 1193.35 330.277C1192.15 330.369 1191.24 331.475 1191.32 332.741C1191.74 338.824 1196.79 343.413 1202.57 342.97C1208.35 342.528 1212.71 337.219 1212.29 331.136C1212.2 329.871 1211.15 328.913 1209.95 329.006H1209.94Z" fill="#FF1B54"/>
<path d="M1174.85 285.041C1167.42 285.654 1161.81 293.015 1162.35 301.448C1162.45 302.962 1163.62 304.103 1164.95 303.993C1166.28 303.883 1167.29 302.561 1167.19 301.049C1166.84 295.641 1170.44 290.923 1175.2 290.53C1179.97 290.137 1184.13 294.215 1184.48 299.622C1184.57 301.136 1185.74 302.276 1187.07 302.166C1188.4 302.056 1189.41 300.735 1189.31 299.223C1188.77 290.79 1182.29 284.427 1174.85 285.041Z" fill="#FF1B54"/>
<path d="M1222.32 281.042C1214.61 281.689 1208.8 289.437 1209.36 298.314C1209.46 299.907 1210.66 301.108 1212.05 300.992C1213.43 300.876 1214.47 299.486 1214.37 297.894C1214.01 292.202 1217.74 287.235 1222.68 286.821C1227.62 286.407 1231.94 290.7 1232.3 296.392C1232.4 297.986 1233.6 299.185 1234.99 299.07C1236.37 298.954 1237.41 297.563 1237.31 295.971C1236.76 287.094 1230.03 280.397 1222.32 281.043V281.042Z" fill="#FF1B54"/>
<path d="M1179.31 301.246C1179.45 303.174 1178 304.851 1176.07 304.991C1174.15 305.131 1172.47 303.682 1172.33 301.754C1172.19 299.827 1173.64 298.15 1175.56 298.009C1177.49 297.869 1179.17 299.319 1179.31 301.246Z" fill="#FF1B54"/>
<path d="M1227.31 297.71C1227.45 299.913 1226 301.829 1224.07 301.989C1222.14 302.15 1220.47 300.493 1220.33 298.291C1220.19 296.087 1221.64 294.171 1223.56 294.011C1225.49 293.851 1227.17 295.507 1227.31 297.71Z" fill="#FF1B54"/>
<path d="M1266.08 289.035C1265.17 282.971 1261.73 278.128 1257.24 276.018C1253.58 257.037 1244.61 243.842 1233.19 235.601C1235.31 228.276 1238.5 211.985 1228.14 203.575L1224.97 201L1224.32 205.326C1224.3 205.472 1222.16 219.39 1216.14 227.304C1208.09 224.942 1199.6 224.309 1191.33 225.247C1185.5 225.922 1179.73 227.667 1174.3 230.25C1167.61 223.291 1163.83 210.388 1163.79 210.249L1162.59 206.082L1159.79 209.139C1150.83 218.908 1155.65 234.039 1158.72 241.169C1158.46 241.43 1158.17 241.668 1157.91 241.937C1147.42 252.766 1141.5 267.849 1140.53 285.69C1136.29 288.475 1133.44 293.873 1133.32 300.095C1133.17 307.7 1137.1 314.303 1142.92 316.437C1142.96 317.088 1142.99 317.743 1143.04 318.395C1144.44 337.148 1153.14 351.371 1168.17 359.523C1183.4 367.783 1199.71 367.194 1204.35 366.816C1208.99 366.439 1225.2 364.382 1239.2 353.745C1253.03 343.246 1259.78 327.765 1258.74 308.984C1258.7 308.261 1258.64 307.549 1258.59 306.828C1264.14 303.813 1267.22 296.586 1266.08 289.035H1266.08ZM1228.11 211.231C1231.96 217.668 1230.34 227.251 1228.88 232.787C1226.36 231.312 1223.76 230.05 1221.08 228.995C1224.79 223.275 1226.98 216.015 1228.11 211.231V211.231ZM1160.81 216.702C1162.49 221.118 1165.47 227.688 1169.68 232.701C1167.2 234.167 1164.86 235.838 1162.63 237.659C1160.49 232.353 1157.9 223.492 1160.81 216.701V216.702ZM1141.73 309.613C1139.5 307.484 1138.13 302.765 1138.17 300.215C1138.25 295.508 1141 291.955 1142.1 290.998L1141.73 309.613ZM1204.04 362.079C1162.08 365.492 1148.62 335.975 1147.27 317.998C1146.74 310.892 1146.62 304.116 1146.91 297.866C1147.67 282.991 1152.6 274.84 1156.64 268.329C1157.82 280.209 1173.37 280.147 1183.12 275.302C1187.95 279.228 1202.96 278.912 1209.52 272.692C1217.28 276.843 1232.72 270.725 1237.93 263.595C1243.1 269.196 1249.17 277.15 1252.27 289.343C1253.36 295.473 1254.11 302.181 1254.5 309.274C1255.5 327.282 1246 358.666 1204.04 362.078L1204.04 362.079ZM1258.99 299.817L1256.22 281.456C1257.44 282.232 1260.91 285.64 1261.3 289.939C1261.64 293.699 1260.93 297.347 1258.99 299.817Z" fill="#FF1B54"/>
<path d="M507.461 748.407L344.381 712.901C339.558 711.851 334.891 715.395 333.956 720.818L302.371 904.139C301.437 909.561 304.589 914.808 309.413 915.858L472.492 951.364C477.316 952.414 481.983 948.87 482.917 943.448L514.503 760.126C515.437 754.704 512.284 749.458 507.461 748.407Z" fill="#565C00"/>
<path d="M428.036 821.966C422.441 820.748 417.005 824.873 415.921 831.165L401.81 828.093C402.894 821.804 399.225 815.694 393.626 814.475C388.029 813.256 382.596 817.382 381.512 823.674C380.428 829.966 384.101 836.074 389.695 837.292C394.657 838.373 399.483 835.247 401.272 830.14L415.737 833.289C415.7 838.774 419.141 843.703 424.1 844.783C429.697 846.002 435.131 841.876 436.215 835.584C437.304 829.293 433.634 823.185 428.036 821.967L428.036 821.966ZM390.179 834.511C385.947 833.589 383.172 828.97 383.991 824.214C384.812 819.458 388.921 816.337 393.152 817.258C397.384 818.18 400.159 822.799 399.339 827.555C398.517 832.307 394.409 835.432 390.179 834.511ZM424.584 842.002C420.353 841.08 417.577 836.461 418.396 831.704C419.215 826.948 423.325 823.828 427.556 824.749C431.789 825.67 434.563 830.29 433.744 835.046C432.925 839.799 428.817 842.923 424.584 842.002Z" fill="black"/>
<path d="M405.638 847.076C403.202 846.546 401.604 843.887 402.076 841.148C402.137 840.791 402.445 840.559 402.761 840.628C403.077 840.697 403.284 841.043 403.222 841.397C402.874 843.423 404.057 845.393 405.859 845.785C407.661 846.177 409.412 844.847 409.761 842.821C409.822 842.464 410.13 842.232 410.446 842.301C410.762 842.37 410.969 842.716 410.907 843.071C410.438 845.808 408.072 847.606 405.638 847.076Z" fill="black"/>
<path d="M426.645 833.497C426.407 834.88 425.215 835.787 423.983 835.519C422.752 835.251 421.946 833.909 422.185 832.526C422.423 831.141 423.617 830.237 424.847 830.505C426.079 830.773 426.883 832.113 426.645 833.497Z" fill="black"/>
<path d="M372.216 843.119C372.033 844.18 370.618 843.872 370.801 842.811C370.984 841.752 372.398 842.06 372.216 843.119Z" fill="black"/>
<path d="M377.157 845.214C376.973 846.274 375.559 845.966 375.742 844.906C375.925 843.845 377.339 844.153 377.157 845.214Z" fill="black"/>
<path d="M373.702 847.159C373.52 848.218 372.106 847.91 372.288 846.851C372.471 845.791 373.886 846.099 373.702 847.159Z" fill="black"/>
<path d="M371.872 850.97C371.689 852.029 370.275 851.721 370.457 850.662C370.64 849.601 372.055 849.909 371.872 850.97Z" fill="black"/>
<path d="M373.93 854.628C373.748 855.689 372.332 855.38 372.514 854.319C372.697 853.259 374.113 853.567 373.93 854.628Z" fill="black"/>
<path d="M377.737 854.687C377.554 855.747 376.14 855.439 376.322 854.379C376.505 853.32 377.919 853.628 377.737 854.687Z" fill="black"/>
<path d="M376.14 851.143C375.957 852.204 374.542 851.896 374.725 850.835C374.907 849.776 376.322 850.084 376.14 851.143Z" fill="black"/>
<path d="M379.445 849.448C379.261 850.508 377.847 850.2 378.03 849.14C378.213 848.081 379.627 848.389 379.445 849.448Z" fill="black"/>
<path d="M395.549 826.727C395.311 828.11 394.118 829.016 392.887 828.749C391.655 828.48 390.851 827.139 391.089 825.756C391.328 824.371 392.519 823.467 393.751 823.735C394.981 824.003 395.788 825.342 395.549 826.727Z" fill="black"/>
<path d="M439.825 857.839C439.642 858.9 438.227 858.592 438.411 857.531C438.593 856.472 440.007 856.78 439.825 857.839Z" fill="black"/>
<path d="M434.55 857.709C434.367 858.77 432.95 858.462 433.134 857.401C433.316 856.34 434.732 856.648 434.55 857.709Z" fill="black"/>
<path d="M437.104 860.963C436.921 862.022 435.507 861.714 435.689 860.655C435.873 859.594 437.287 859.902 437.104 860.963Z" fill="black"/>
<path d="M437.541 865.268C437.358 866.327 435.944 866.019 436.126 864.96C436.309 863.899 437.724 864.207 437.541 865.268Z" fill="black"/>
<path d="M434.412 867.796C434.229 868.857 432.814 868.549 432.997 867.488C433.18 866.427 434.594 866.735 434.412 867.796Z" fill="black"/>
<path d="M430.861 866.253C430.678 867.313 429.264 867.005 429.446 865.945C429.629 864.886 431.043 865.194 430.861 866.253Z" fill="black"/>
<path d="M433.515 863.635C433.333 864.696 431.918 864.388 432.101 863.327C432.283 862.268 433.698 862.576 433.515 863.635Z" fill="black"/>
<path d="M431.017 860.676C430.835 861.737 429.42 861.429 429.603 860.368C429.785 859.309 431.2 859.617 431.017 860.676Z" fill="black"/>
<path d="M471.276 864.548C471.388 864.077 484.022 855.456 473.764 845.445C473.641 845.324 470.116 849.514 465.088 848.3C455.567 845.997 458.24 829.161 458.079 814.939C458.961 791.461 443.036 769.75 420.044 764.744C397.054 759.739 375.071 773.2 368.094 795.347C363.22 808.475 360.107 825.213 350.511 823.354C345.441 822.372 343.565 817.004 343.41 817.064C330.568 822.046 339.426 835.346 339.374 835.83C332.836 839.93 331.582 853.741 340.385 860.624C340.857 865.628 343.398 870.719 348.7 873.66C349.633 874.051 350.65 874.221 351.694 874.292C352.998 877.444 355.298 880.303 358.783 882.235C361.214 883.253 364.138 883.079 366.867 882.141C368.231 884.779 370.33 887.144 373.331 888.81C374.12 889.143 374.968 889.32 375.843 889.406C380.927 894.128 387.099 897.538 394.027 899.047L399.483 900.235C406.431 901.747 413.31 901.181 419.614 898.93C420.469 899.228 421.327 899.424 422.186 899.449C425.526 899.163 428.257 897.85 430.397 895.975C432.618 897.99 435.272 899.379 437.865 899.454C441.737 899.124 444.823 897.44 447.08 895.061C448.07 895.432 449.07 895.703 450.067 895.732C455.963 895.229 460.012 891.57 462.111 887.128C472.558 884.434 475.983 871.092 471.277 864.548H471.276ZM440.948 865.768C438.638 879.177 431.201 889.927 421.38 896.096C414.737 898.992 407.322 899.93 399.81 898.295L394.353 897.107C386.934 895.491 380.445 891.571 375.285 886.184C368.153 876.324 364.781 863.166 367.103 849.69L373.026 815.296C373.434 812.933 374.017 810.655 374.733 808.459C379.722 810.016 400.972 815.993 412.425 808.956C420.715 820.294 442.417 823.664 447.556 824.314C447.492 826.653 447.275 829.01 446.868 831.373L440.944 865.767L440.948 865.768Z" fill="black"/>
<path d="M403.696 857.856C397.302 856.464 390.483 857.199 389.659 861.986C388.288 869.946 392.934 877.678 400.017 879.22C407.098 880.762 413.976 875.538 415.348 867.579C416.174 862.792 410.091 859.248 403.696 857.856ZM400.353 877.281C397.068 876.566 394.262 874.236 392.619 870.876C395.045 867.865 398.564 866.525 402.074 867.29C405.528 868.042 408.416 870.828 409.653 874.585C407.014 877.014 403.637 877.996 400.353 877.281Z" fill="black"/>
<path d="M1058.16 103.473L813.111 20.8722C808.405 19.2859 803.446 22.2885 802.035 27.5786L728.555 303.045C727.144 308.335 729.815 313.91 734.521 315.496L979.571 398.096C984.277 399.683 989.236 396.68 990.647 391.39L1064.13 115.923C1065.54 110.633 1062.87 105.059 1058.16 103.473Z" fill="#BFA5A5"/>
<path d="M884.439 272.27C883.416 271.924 882.34 272.583 882.037 273.729C880.302 280.222 874.191 283.915 868.427 281.97C862.653 280.025 859.362 273.156 861.087 266.67C861.399 265.524 860.821 264.306 859.798 263.961C858.766 263.616 857.689 264.275 857.387 265.42C855.038 274.206 859.495 283.503 867.315 286.138C875.125 288.773 883.398 283.768 885.738 274.979C886.049 273.828 885.471 272.615 884.448 272.27H884.439Z" fill="black"/>
<path d="M919.079 233.033C918.172 236.416 915.005 238.337 911.989 237.321C908.983 236.307 907.275 232.741 908.173 229.357C909.081 225.971 912.247 224.05 915.254 225.065C918.27 226.08 919.978 229.647 919.079 233.033Z" fill="black"/>
<path d="M860.998 213.455C860.091 216.838 856.924 218.759 853.909 217.744C850.893 216.728 849.185 213.162 850.092 209.779C850.991 206.393 854.166 204.472 857.173 205.487C860.189 206.503 861.897 210.069 860.998 213.455Z" fill="black"/>
<path d="M882.784 246.134L875.97 243.835L888.487 206.809L884.875 205.264L870.873 246.662L881.672 250.302L882.784 246.134Z" fill="black"/>
<path d="M998.546 102.196C986.554 98.153 974.171 101.426 965.151 109.685C959.805 110.785 953.061 114.598 948.035 118.818C936.542 109.255 923.554 102.594 911.011 98.837C876.424 88.473 820.46 97.953 800.089 174.339C800.089 174.339 799.617 175.595 798.968 177.481C794.991 179.503 791.673 183.556 790.241 188.919C787.937 197.565 790.828 203.048 793.79 206.217C792.314 210.939 790.917 215.826 789.601 220.928C782.315 249.36 787.928 275.685 805.835 297.066C824.107 318.88 848.42 328.292 855.439 330.656C862.449 333.022 887.357 340.202 913.297 333.287C938.713 326.51 956.282 308.001 964.119 279.751C965.525 274.682 966.743 269.734 967.82 264.88C971.841 264.059 976.938 261.273 979.251 252.626C980.665 247.319 979.909 241.934 977.641 237.801C982.533 220.591 984.215 205.058 983.503 191.083C989.161 188.666 995.263 184.637 998.884 180.445C1010.05 176.549 1019.34 166.697 1022.96 153.156C1028.74 131.502 1017.81 108.683 998.546 102.191V102.196ZM978.023 145.711L979.624 149.594C980.016 150.534 980.051 151.592 979.74 152.577C979.42 153.56 978.779 154.343 977.943 154.781L969.314 159.299C968.763 159.591 967.001 160.531 965.863 158.891C965.507 158.37 962.936 152.878 962.883 152.553C962.883 152.553 962.171 149.644 964.768 148.339L973.397 143.821C974.234 143.383 975.194 143.357 976.057 143.699C976.938 144.062 977.632 144.777 978.023 145.711ZM971.565 115.032C972.17 118.031 975.194 131.428 974.954 139.141C973.869 139.122 960.659 146.274 959.911 147.717C955.063 143.694 944.095 133.913 944.771 128.816C945.998 119.379 970.4 109.298 971.565 115.032ZM795.276 201.636C793.186 198.575 792.732 194.739 793.96 190.164C795.401 184.761 799.27 181.063 803.469 180.496C800.516 187.013 797.785 194.063 795.276 201.636ZM975.55 251.376C974.331 255.948 972.081 258.875 968.834 260.139C970.444 252.261 971.609 244.685 972.339 237.42C975.559 240.485 976.991 245.97 975.55 251.376ZM960.427 278.456C952.608 306.661 921.935 348.514 856.56 326.476C791.175 304.438 786.051 250.512 793.328 222.123C803.95 180.696 819.962 152.294 840.938 137.564C833.199 155.618 859.148 166.459 874.618 165.353C875.161 166.822 893.682 192.653 916.233 177.493C915.61 179.83 944.611 201.122 962.002 182.121C968.985 199.589 969.457 217.249 969.207 227.688C968.46 243.05 965.551 259.985 960.427 278.454V278.456ZM973.575 188.932C973.558 188.924 973.549 188.922 973.531 188.917C969.083 187.416 968.158 170.507 967.855 163.99C968.896 163.991 982.187 156.681 982.907 155.176C988.778 159.345 997.781 168.484 998.555 171.36C1000.14 177.218 978.851 192.182 973.575 188.932Z" fill="black"/>
</svg>
