<svg width="1708" height="1080" viewBox="0 0 1708 1080" fill="none" xmlns="http://www.w3.org/2000/svg">
<path d="M291.6 210.239L47.0723 246.299C42.201 247.018 38.7685 252.039 39.4055 257.516L71.3823 532.41C72.0193 537.886 76.4847 541.743 81.356 541.025L325.884 504.965C330.755 504.247 334.188 499.225 333.551 493.749L301.574 218.854C300.937 213.378 296.472 209.521 291.6 210.239Z" fill="#565C00"/>
<path d="M203.202 439.227L184.946 441.915C182.864 442.221 181.388 444.377 181.661 446.715C181.933 449.052 183.85 450.708 185.935 450.401L204.19 447.714C206.273 447.407 207.743 445.252 207.471 442.914C207.199 440.576 205.285 438.92 203.202 439.227Z" fill="#F84071"/>
<path d="M187.78 387.277C181.788 388.159 177.547 394.357 178.332 401.094L179.755 413.315C180.541 420.052 186.06 424.819 192.052 423.936C198.044 423.054 202.285 416.85 201.5 410.114L200.076 397.892C199.292 391.156 193.773 386.395 187.78 387.277ZM194.047 411.211C194.294 413.33 192.963 415.28 191.076 415.558C189.191 415.835 187.457 414.34 187.209 412.218L185.785 399.996C185.539 397.88 186.869 395.933 188.757 395.656C190.639 395.378 192.376 396.874 192.622 398.989L194.047 411.211Z" fill="#F84071"/>
<path d="M232.625 357.677C228.763 354.337 223.986 352.894 219.166 353.604C209.521 355.024 202.611 364.736 203.37 375.516L170.19 380.401C168.458 369.758 159.557 362.38 149.906 363.801C139.947 365.267 132.907 375.569 134.211 386.763C135.516 397.959 144.68 405.872 154.637 404.406C163.071 403.164 169.578 395.53 170.389 386.086L204.473 381.068C207.421 389.959 215.46 395.451 223.89 394.21C233.85 392.744 240.89 382.441 239.586 371.248C238.963 365.835 236.487 361.018 232.626 357.677H232.625Z" fill="#F84071"/>
<path d="M288.618 358.961C286.715 349.619 281.011 342.427 273.901 339.594C258.984 279.039 210.71 259.49 167.864 267.214C148.858 270.687 130.496 281.372 117.477 296.531C102.11 314.432 94.1509 338.493 94.077 366.348C87.7274 371.106 83.7622 379.79 84.0691 389.483C84.4446 401.331 91.0533 411.21 100.226 413.947C100.343 414.955 100.443 415.972 100.571 416.982C104.234 446.016 118.817 467.276 142.732 478.452C166.959 489.774 192.154 487.222 199.297 486.17C206.441 485.118 231.366 480.292 252.184 462.337C272.737 444.615 281.953 419.852 278.84 390.735C278.721 389.614 278.573 388.512 278.443 387.396C286.794 382.15 290.983 370.598 288.615 358.963L288.618 358.961ZM97.848 403.445C94.2167 400.356 91.7837 395.061 91.5897 389.18C91.2882 380.077 95.3029 376.044 96.9308 374.446L97.848 403.445ZM198.447 478.834C133.799 488.352 110.603 443.778 107.089 415.942C105.701 404.94 104.972 394.408 104.922 384.657C104.917 361.435 111.883 348.261 117.629 337.724C117.727 344.942 144.451 354.434 159.151 345.918C172.476 350.817 190.145 349.545 199.792 339.21C207.762 346.686 235.532 333.823 243.029 322.207C251.47 330.402 261.504 342.168 267.269 360.828C269.449 370.257 271.149 380.62 272.318 391.615C275.296 419.533 263.096 469.315 198.449 478.833L198.447 478.834ZM278.511 376.451L272.755 348.161C274.71 349.246 279.89 353.647 281.292 360.851C282.409 366.602 281.312 372.414 278.511 376.451Z" fill="#F84071"/>
<g opacity="0.5">
<path d="M1609.55 550.682L1455.94 563.883C1451.55 564.26 1448.26 568.757 1448.58 573.927L1459.74 755.056C1460.06 760.226 1463.87 764.112 1468.25 763.735L1621.86 750.534C1626.25 750.157 1629.55 745.66 1629.23 740.49L1618.07 559.361C1617.75 554.191 1613.94 550.305 1609.55 550.682Z" fill="#565C00"/>
<path d="M1609.55 550.682L1455.94 563.883C1451.55 564.26 1448.26 568.757 1448.58 573.927L1459.74 755.056C1460.06 760.226 1463.87 764.112 1468.25 763.735L1621.86 750.534C1626.25 750.157 1629.55 745.66 1629.23 740.49L1618.07 559.361C1617.75 554.191 1613.94 550.305 1609.55 550.682Z" fill="#565C00"/>
</g>
<path d="M1539.71 673.022C1535.73 673.356 1532.73 677.358 1533.02 681.943L1533.54 690.264C1533.83 694.85 1537.31 698.311 1541.29 697.978C1545.27 697.644 1548.27 693.639 1547.98 689.053L1547.46 680.733C1547.17 676.148 1543.69 672.689 1539.71 673.022ZM1543.03 689.467C1543.12 690.91 1542.18 692.169 1540.93 692.274C1539.68 692.379 1538.58 691.293 1538.49 689.849L1537.97 681.529C1537.88 680.088 1538.82 678.831 1540.07 678.727C1541.32 678.621 1542.42 679.708 1542.51 681.148L1543.03 689.467Z" fill="#FF1B54"/>
<path d="M1549.63 703.007C1548.42 703.105 1547.51 704.291 1547.6 705.647C1547.85 709.45 1545.3 712.766 1541.93 713.043C1538.56 713.32 1535.62 710.451 1535.37 706.65C1535.28 705.294 1534.23 704.269 1533.03 704.368C1531.83 704.466 1530.92 705.652 1531.01 707.008C1531.43 713.526 1536.47 718.443 1542.25 717.968C1548.03 717.494 1552.39 711.806 1551.97 705.288C1551.88 703.933 1550.83 702.907 1549.63 703.007H1549.63Z" fill="#FF1B54"/>
<path d="M1514.54 657.043C1507.1 657.689 1501.5 665.437 1502.04 674.314C1502.13 675.907 1503.3 677.108 1504.63 676.992C1505.96 676.877 1506.97 675.486 1506.87 673.894C1506.53 668.202 1510.12 663.235 1514.89 662.821C1519.65 662.407 1523.81 666.7 1524.16 672.392C1524.25 673.986 1525.42 675.185 1526.75 675.07C1528.09 674.954 1529.09 673.563 1528.99 671.971C1528.46 663.094 1521.97 656.397 1514.54 657.043Z" fill="#FF1B54"/>
<path d="M1562 653.044C1554.29 653.723 1548.48 661.859 1549.04 671.18C1549.14 672.853 1550.35 674.113 1551.73 673.992C1553.11 673.87 1554.15 672.41 1554.05 670.739C1553.69 664.762 1557.42 659.547 1562.36 659.112C1567.31 658.678 1571.62 663.185 1571.98 669.162C1572.08 670.835 1573.29 672.094 1574.67 671.973C1576.05 671.852 1577.09 670.391 1576.99 668.72C1576.44 659.398 1569.71 652.366 1562 653.045V653.044Z" fill="#FF1B54"/>
<path d="M1518.99 674.246C1519.13 676.174 1517.68 677.851 1515.75 677.991C1513.83 678.131 1512.15 676.682 1512.01 674.754C1511.87 672.827 1513.32 671.15 1515.25 671.009C1517.18 670.869 1518.85 672.319 1518.99 674.246Z" fill="#FF1B54"/>
<path d="M1566.99 670.174C1567.13 672.652 1565.68 674.808 1563.75 674.988C1561.83 675.169 1560.15 673.305 1560.01 670.827C1559.87 668.348 1561.32 666.192 1563.25 666.012C1565.17 665.832 1566.85 667.695 1566.99 670.174Z" fill="#FF1B54"/>
<path d="M1605.76 661.278C1604.85 654.921 1601.41 649.845 1596.93 647.633C1593.26 627.737 1584.29 613.907 1572.87 605.268C1574.99 597.591 1578.18 580.515 1567.82 571.699L1564.65 569L1564 573.535C1563.98 573.688 1561.84 588.277 1555.82 596.572C1547.77 594.096 1539.28 593.432 1531.02 594.415C1525.18 595.123 1519.41 596.952 1513.98 599.66C1507.29 592.365 1503.51 578.84 1503.47 578.694L1502.27 574.327L1499.47 577.531C1490.52 587.771 1495.34 603.632 1498.4 611.105C1498.14 611.379 1497.85 611.628 1497.59 611.91C1487.1 623.261 1481.18 639.071 1480.22 657.772C1475.97 660.691 1473.13 666.349 1473 672.871C1472.85 680.842 1476.79 687.763 1482.6 690C1482.65 690.683 1482.68 691.369 1482.73 692.053C1484.13 711.709 1492.82 726.618 1507.85 735.163C1523.08 743.82 1539.39 743.203 1544.03 742.807C1548.67 742.412 1564.88 740.256 1578.88 729.106C1592.71 718.101 1599.46 701.874 1598.42 682.188C1598.38 681.43 1598.32 680.684 1598.27 679.928C1603.83 676.768 1606.91 669.193 1605.76 661.278H1605.76ZM1567.79 579.724C1571.64 586.471 1570.02 596.516 1568.56 602.319C1566.05 600.773 1563.44 599.45 1560.76 598.344C1564.47 592.348 1566.66 584.739 1567.79 579.724V579.724ZM1500.49 585.459C1502.17 590.088 1505.15 596.974 1509.36 602.229C1506.89 603.765 1504.54 605.517 1502.31 607.426C1500.17 601.864 1497.58 592.576 1500.49 585.458V585.459ZM1481.41 682.848C1479.18 680.615 1477.81 675.669 1477.85 672.996C1477.93 668.062 1480.68 664.338 1481.78 663.335L1481.41 682.848ZM1543.72 737.842C1501.77 741.419 1488.3 710.479 1486.95 691.636C1486.42 684.188 1486.3 677.085 1486.59 670.535C1487.35 654.942 1492.28 646.399 1496.33 639.574C1497.5 652.026 1513.05 651.961 1522.8 646.883C1527.63 650.999 1542.65 650.667 1549.2 644.147C1556.96 648.498 1572.4 642.085 1577.61 634.612C1582.78 640.482 1588.85 648.819 1591.95 661.6C1593.04 668.026 1593.79 675.058 1594.18 682.492C1595.18 701.368 1585.68 734.264 1543.72 737.841L1543.72 737.842ZM1598.67 672.579L1595.9 653.333C1597.12 654.147 1600.59 657.719 1600.98 662.226C1601.32 666.166 1600.61 669.99 1598.67 672.579Z" fill="#FF1B54"/>
<path d="M507.461 748.407L344.381 712.901C339.558 711.851 334.891 715.395 333.956 720.818L302.371 904.139C301.437 909.561 304.589 914.808 309.413 915.858L472.492 951.364C477.316 952.414 481.983 948.87 482.917 943.448L514.503 760.126C515.437 754.704 512.284 749.458 507.461 748.407Z" fill="#1E1E1E"/>
<path d="M428.036 821.966C422.441 820.748 417.005 824.873 415.921 831.165L401.81 828.093C402.894 821.804 399.225 815.694 393.626 814.475C388.029 813.256 382.596 817.382 381.512 823.674C380.428 829.966 384.101 836.074 389.695 837.292C394.657 838.373 399.483 835.247 401.272 830.14L415.737 833.289C415.7 838.774 419.141 843.703 424.1 844.783C429.697 846.002 435.131 841.876 436.215 835.584C437.304 829.293 433.634 823.185 428.036 821.967L428.036 821.966ZM390.179 834.511C385.947 833.589 383.172 828.97 383.991 824.214C384.812 819.458 388.921 816.337 393.152 817.258C397.384 818.18 400.159 822.799 399.339 827.555C398.517 832.307 394.409 835.432 390.179 834.511ZM424.584 842.002C420.353 841.08 417.577 836.461 418.396 831.704C419.215 826.948 423.325 823.828 427.556 824.749C431.789 825.67 434.563 830.29 433.744 835.046C432.925 839.799 428.817 842.923 424.584 842.002Z" fill="#FF1B54"/>
<path d="M405.638 847.076C403.202 846.546 401.604 843.887 402.076 841.148C402.137 840.791 402.445 840.559 402.761 840.628C403.077 840.697 403.284 841.043 403.222 841.397C402.874 843.423 404.057 845.393 405.859 845.785C407.661 846.177 409.412 844.847 409.761 842.821C409.822 842.464 410.13 842.232 410.446 842.301C410.762 842.37 410.969 842.716 410.907 843.071C410.438 845.808 408.072 847.606 405.638 847.076Z" fill="#FF1B54"/>
<path d="M426.645 833.497C426.407 834.88 425.215 835.787 423.983 835.519C422.752 835.251 421.946 833.909 422.185 832.526C422.423 831.141 423.617 830.237 424.847 830.505C426.079 830.773 426.883 832.113 426.645 833.497Z" fill="#FF1B54"/>
<path d="M372.216 843.119C372.033 844.18 370.618 843.872 370.801 842.811C370.984 841.752 372.398 842.06 372.216 843.119Z" fill="#FF1B54"/>
<path d="M377.157 845.214C376.973 846.274 375.559 845.966 375.742 844.906C375.925 843.845 377.339 844.153 377.157 845.214Z" fill="#FF1B54"/>
<path d="M373.702 847.159C373.52 848.218 372.106 847.91 372.288 846.851C372.471 845.791 373.886 846.099 373.702 847.159Z" fill="#FF1B54"/>
<path d="M371.872 850.97C371.689 852.029 370.275 851.721 370.457 850.662C370.64 849.601 372.055 849.909 371.872 850.97Z" fill="#FF1B54"/>
<path d="M373.93 854.628C373.748 855.689 372.332 855.38 372.514 854.319C372.697 853.259 374.113 853.567 373.93 854.628Z" fill="#FF1B54"/>
<path d="M377.737 854.687C377.554 855.747 376.14 855.439 376.322 854.379C376.505 853.32 377.919 853.628 377.737 854.687Z" fill="#FF1B54"/>
<path d="M376.14 851.143C375.957 852.204 374.542 851.896 374.725 850.835C374.907 849.776 376.322 850.084 376.14 851.143Z" fill="#FF1B54"/>
<path d="M379.445 849.448C379.261 850.508 377.847 850.2 378.03 849.14C378.213 848.081 379.627 848.389 379.445 849.448Z" fill="#FF1B54"/>
<path d="M395.549 826.727C395.311 828.11 394.118 829.016 392.887 828.749C391.655 828.48 390.851 827.139 391.089 825.756C391.328 824.371 392.519 823.467 393.751 823.735C394.981 824.003 395.788 825.342 395.549 826.727Z" fill="#FF1B54"/>
<path d="M439.825 857.839C439.642 858.9 438.227 858.592 438.411 857.531C438.593 856.472 440.007 856.78 439.825 857.839Z" fill="#FF1B54"/>
<path d="M434.55 857.709C434.367 858.77 432.95 858.462 433.134 857.401C433.316 856.34 434.732 856.648 434.55 857.709Z" fill="#FF1B54"/>
<path d="M437.104 860.963C436.921 862.022 435.507 861.714 435.689 860.655C435.873 859.594 437.287 859.902 437.104 860.963Z" fill="#FF1B54"/>
<path d="M437.541 865.268C437.358 866.327 435.944 866.019 436.126 864.96C436.309 863.899 437.724 864.207 437.541 865.268Z" fill="#FF1B54"/>
<path d="M434.412 867.796C434.229 868.857 432.814 868.549 432.997 867.488C433.18 866.427 434.594 866.735 434.412 867.796Z" fill="#FF1B54"/>
<path d="M430.861 866.253C430.678 867.313 429.264 867.005 429.446 865.945C429.629 864.886 431.043 865.194 430.861 866.253Z" fill="#FF1B54"/>
<path d="M433.515 863.635C433.333 864.696 431.918 864.388 432.101 863.327C432.283 862.268 433.698 862.576 433.515 863.635Z" fill="#FF1B54"/>
<path d="M431.017 860.676C430.835 861.737 429.42 861.429 429.603 860.368C429.785 859.309 431.2 859.617 431.017 860.676Z" fill="#FF1B54"/>
<path d="M471.276 864.548C471.388 864.077 484.022 855.456 473.764 845.445C473.641 845.324 470.116 849.514 465.088 848.3C455.567 845.997 458.24 829.161 458.079 814.939C458.961 791.461 443.036 769.75 420.044 764.744C397.054 759.739 375.071 773.2 368.094 795.347C363.22 808.475 360.107 825.213 350.511 823.354C345.441 822.372 343.565 817.004 343.41 817.064C330.568 822.046 339.426 835.346 339.374 835.83C332.836 839.93 331.582 853.741 340.385 860.624C340.857 865.628 343.398 870.719 348.7 873.66C349.633 874.051 350.65 874.221 351.694 874.292C352.998 877.444 355.298 880.303 358.783 882.235C361.214 883.253 364.138 883.079 366.867 882.141C368.231 884.779 370.33 887.144 373.331 888.81C374.12 889.143 374.968 889.32 375.843 889.406C380.927 894.128 387.099 897.538 394.027 899.047L399.483 900.235C406.431 901.747 413.31 901.181 419.614 898.93C420.469 899.228 421.327 899.424 422.186 899.449C425.526 899.163 428.257 897.85 430.397 895.975C432.618 897.99 435.272 899.379 437.865 899.454C441.737 899.124 444.823 897.44 447.08 895.061C448.07 895.432 449.07 895.703 450.067 895.732C455.963 895.229 460.012 891.57 462.111 887.128C472.558 884.434 475.982 871.092 471.276 864.548ZM440.948 865.768C438.638 879.177 431.201 889.927 421.38 896.096C414.737 898.992 407.322 899.93 399.81 898.295L394.353 897.107C386.934 895.491 380.445 891.571 375.285 886.184C368.153 876.324 364.781 863.166 367.103 849.69L373.026 815.296C373.434 812.933 374.017 810.655 374.733 808.459C379.722 810.016 400.972 815.993 412.425 808.956C420.715 820.294 442.417 823.664 447.556 824.314C447.492 826.653 447.275 829.01 446.868 831.373L440.944 865.767L440.948 865.768Z" fill="#FF1B54"/>
<path d="M403.696 857.856C397.302 856.464 390.483 857.199 389.659 861.986C388.288 869.946 392.934 877.678 400.017 879.22C407.098 880.762 413.976 875.538 415.348 867.579C416.174 862.792 410.091 859.248 403.696 857.856ZM400.353 877.281C397.068 876.566 394.262 874.236 392.619 870.876C395.045 867.865 398.564 866.525 402.074 867.29C405.528 868.042 408.416 870.828 409.653 874.585C407.014 877.014 403.637 877.996 400.353 877.281Z" fill="#FF1B54"/>
<path d="M1411.16 160.473L1166.11 77.8722C1161.41 76.2859 1156.45 79.2885 1155.04 84.5786L1081.56 360.045C1080.14 365.335 1082.81 370.91 1087.52 372.496L1332.57 455.096C1337.28 456.683 1342.24 453.68 1343.65 448.39L1417.13 172.923C1418.54 167.633 1415.87 162.059 1411.16 160.473Z" fill="#BFA5A5" fill-opacity="0.7"/>
<path d="M1237.44 329.27C1236.42 328.924 1235.34 329.583 1235.04 330.729C1233.3 337.222 1227.19 340.915 1221.43 338.97C1215.65 337.025 1212.36 330.156 1214.09 323.67C1214.4 322.524 1213.82 321.306 1212.8 320.961C1211.77 320.616 1210.69 321.275 1210.39 322.42C1208.04 331.206 1212.5 340.503 1220.31 343.138C1228.13 345.773 1236.4 340.768 1238.74 331.979C1239.05 330.828 1238.47 329.615 1237.45 329.27H1237.44Z" fill="#FF1B54"/>
<path d="M1272.08 290.033C1271.17 293.416 1268.01 295.337 1264.99 294.321C1261.98 293.307 1260.27 289.741 1261.17 286.357C1262.08 282.971 1265.25 281.05 1268.25 282.065C1271.27 283.08 1272.98 286.647 1272.08 290.033Z" fill="#FF1B54"/>
<path d="M1214 270.455C1213.09 273.838 1209.92 275.759 1206.91 274.744C1203.89 273.728 1202.18 270.162 1203.09 266.779C1203.99 263.393 1207.17 261.472 1210.17 262.487C1213.19 263.503 1214.9 267.069 1214 270.455Z" fill="#FF1B54"/>
<path d="M1235.78 303.134L1228.97 300.835L1241.49 263.809L1237.87 262.264L1223.87 303.662L1234.67 307.302L1235.78 303.134Z" fill="#FF1B54"/>
<path d="M1351.55 159.196C1339.55 155.153 1327.17 158.426 1318.15 166.685C1312.8 167.785 1306.06 171.598 1301.04 175.818C1289.54 166.255 1276.55 159.594 1264.01 155.837C1229.42 145.473 1173.46 154.953 1153.09 231.339C1153.09 231.339 1152.62 232.595 1151.97 234.481C1147.99 236.503 1144.67 240.556 1143.24 245.919C1140.94 254.565 1143.83 260.048 1146.79 263.217C1145.31 267.939 1143.92 272.826 1142.6 277.928C1135.31 306.36 1140.93 332.685 1158.84 354.066C1177.11 375.88 1201.42 385.292 1208.44 387.656C1215.45 390.022 1240.36 397.202 1266.3 390.287C1291.71 383.51 1309.28 365.001 1317.12 336.751C1318.52 331.682 1319.74 326.734 1320.82 321.88C1324.84 321.059 1329.94 318.273 1332.25 309.626C1333.67 304.319 1332.91 298.934 1330.64 294.801C1335.53 277.591 1337.21 262.058 1336.5 248.083C1342.16 245.666 1348.26 241.637 1351.88 237.445C1363.05 233.549 1372.34 223.697 1375.96 210.156C1381.74 188.502 1370.81 165.683 1351.55 159.191V159.196ZM1331.02 202.711L1332.62 206.594C1333.02 207.534 1333.05 208.592 1332.74 209.577C1332.42 210.56 1331.78 211.343 1330.94 211.781L1322.31 216.299C1321.76 216.591 1320 217.531 1318.86 215.891C1318.51 215.37 1315.94 209.878 1315.88 209.553C1315.88 209.553 1315.17 206.644 1317.77 205.339L1326.4 200.821C1327.23 200.383 1328.19 200.357 1329.06 200.699C1329.94 201.062 1330.63 201.777 1331.02 202.711ZM1324.56 172.032C1325.17 175.031 1328.19 188.428 1327.95 196.141C1326.87 196.122 1313.66 203.274 1312.91 204.717C1308.06 200.694 1297.09 190.913 1297.77 185.816C1299 176.379 1323.4 166.298 1324.56 172.032ZM1148.28 258.636C1146.19 255.575 1145.73 251.739 1146.96 247.164C1148.4 241.761 1152.27 238.063 1156.47 237.496C1153.52 244.013 1150.78 251.063 1148.28 258.636ZM1328.55 308.376C1327.33 312.948 1325.08 315.875 1321.83 317.139C1323.44 309.261 1324.61 301.685 1325.34 294.42C1328.56 297.485 1329.99 302.97 1328.55 308.376ZM1313.43 335.456C1305.61 363.661 1274.94 405.514 1209.56 383.476C1144.18 361.438 1139.05 307.512 1146.33 279.123C1156.95 237.696 1172.96 209.294 1193.94 194.564C1186.2 212.618 1212.15 223.459 1227.62 222.353C1228.16 223.822 1246.68 249.653 1269.23 234.493C1268.61 236.83 1297.61 258.122 1315 239.121C1321.99 256.589 1322.46 274.249 1322.21 284.688C1321.46 300.05 1318.55 316.985 1313.43 335.454V335.456ZM1326.58 245.932C1326.56 245.924 1326.55 245.922 1326.53 245.917C1322.08 244.416 1321.16 227.507 1320.86 220.99C1321.9 220.991 1335.19 213.681 1335.91 212.176C1341.78 216.345 1350.78 225.484 1351.55 228.36C1353.14 234.218 1331.85 249.182 1326.58 245.932Z" fill="#FF1B54"/>
</svg>
